# xmcd CD database file
#
# Track frame offsets:
#	150
#	26974
#	57231
#	86131
#	100198
#	129060
#	148254
#	168409
#	193131
#
# Disc length: 2933 seconds
#
# Revision: 0
# Processed by: cddbd v1.5.2PL0 Copyright (c) Steve Scherf et al.
# Submitted via: CDex 1.70beta2
#
DISCID=7e0b7309
DTITLE=Matthias Petzold - Ulysses
DYEAR=1996
DGENRE=Jazz
TTITLE0=Neujahrslied
TTITLE1=Don Quijote und die Warteschlangen
TTITLE2=Der Himmel über Pingsdorf
TTITLE3=Trendadue Panini
TTITLE4=Yussufs Traum
TTITLE5=Strange Fruit (Billie Holiday)
TTITLE6=Eleanor Rigby (Lennon/McCartney)
TTITLE7=Ulysses 1995
TTITLE8=Nun laube, Lindlein, laube (Hindemith)
EXTD=YEAR: 1996
EXTT0=
EXTT1=
EXTT2=
EXTT3=
EXTT4=
EXTT5=
EXTT6=
EXTT7=
EXTT8=
PLAYORDER=
